<svg  xmlns="http://www.w3.org/2000/svg" xmlns:xlink="http://www.w3.org/1999/xlink"  style="position: absolute;" >
    <symbol id="Icon_cancelar" viewBox="0 0 45 45"  xmlns="http://www.w3.org/2000/svg">
        <path fill-rule="evenodd" clip-rule="evenodd" d="M10.5858 11.0858C9.80472 11.8668 9.80472 13.1332 10.5858 13.9142L19.6716 23L10.5858 32.0858C9.80472 32.8668 9.80472 34.1332 10.5858 34.9142C11.3668 35.6953 12.6332 35.6953 13.4142 34.9142L22.5 25.8284L31.5858 34.9142C32.3668 35.6953 33.6331 35.6953 34.4142 34.9142C35.1952 34.1332 35.1952 32.8668 34.4142 32.0858L25.3284 23L34.4142 13.9142C35.1952 13.1332 35.1952 11.8668 34.4142 11.0858C33.6331 10.3047 32.3668 10.3047 31.5858 11.0858L22.5 20.1716L13.4142 11.0858C12.6332 10.3047 11.3668 10.3047 10.5858 11.0858Z"
        fill="#FFFFFF"/>
    </symbol>
    <symbol id="Icon_confirmar" viewBox="0 0 45 45"  xmlns="http://www.w3.org/2000/svg">        <!-- check BLANCO -->
        <path d="M13.6632 33.3497L6.74622 27.4973C4.44057 25.5466 8.02714 22.512 10.0766 24.4628C11.3575 25.4382 12.1114 26.0536 12.8652 26.669C13.6191 27.2844 14.3729 27.8998 15.6539 28.8752C16.4224 28.225 16.56 28.0809 16.4812 28.1476C22.6296 22.9455 28.778 17.7434 34.6702 12.5412C36.9759 10.8072 40.5625 13.625 38.2568 15.5758L35.695 17.7434L17.2497 33.3497C16.225 34.2168 14.6879 34.2168 13.6632 33.3497Z"
        fill="#FFFFFF"/>   
    </symbol>
    <symbol id="Icon_crear" viewBox="0 0 34 34" fill="none" xmlns="http://www.w3.org/2000/svg">
        <path fill-rule="evenodd" clip-rule="evenodd" d="M18.5 2C18.5 0.89543 17.6046 0 16.5 0C15.3954 0 14.5 0.89543 14.5 2V15H2C0.89543 15 0 15.8954 0 17C0 18.1046 0.895429 19 2 19H14.5V32C14.5 33.1046 15.3954 34 16.5 34C17.6046 34 18.5 33.1046 18.5 32V19H32C33.1046 19 34 18.1046 34 17C34 15.8954 33.1046 15 32 15H18.5V2Z" fill="#40CEE4"/>
    </symbol>
    <symbol id="Icon_editar" viewBox="0 0 38 38" xmlns="http://www.w3.org/2000/svg">
        <g clip-path="url(#clip0_25_124__Icon_editar)">
            <path d="M30.4 22.8C30.4 31.1942 23.5942 38 15.2 38C6.8058 38 0 31.1942 0 22.8C0 14.4058 6.8058 7.6 15.2 7.6C16.2488 7.6 17.2748 7.7064 18.2666 7.9078L15.5306 10.6438C15.4204 10.64 15.3102 10.64 15.2 10.64C8.4968 10.64 3.04 16.0968 3.04 22.8C3.04 29.5032 8.4968 34.96 15.2 34.96C21.9032 34.96 27.36 29.5032 27.36 22.8C27.36 22.6898 27.36 22.5796 27.3562 22.4694L30.0922 19.7372C30.2936 20.7252 30.4 21.7512 30.4 22.8ZM30.476 0L12.882 17.594L20.406 25.118L38 7.524L30.476 0ZM10.7312 19.7448L9.12 28.88L18.2552 27.2688L10.7312 19.7448Z" fill="#C5C5C5"/>
        </g>
        <defs>
            <clipPath id="clip0_25_124__Icon_editar">
                <rect width="38" height="38" fill="white"/>
            </clipPath>
        </defs>
    </symbol>
    <symbol id="Icon_editar1" viewBox="0 0 38 38" xmlns="http://www.w3.org/2000/svg">
        <g clip-path="url(#clip0_25_209__Icon_editar1)">
            <path d="M30.4 22.8C30.4 31.1942 23.5942 38 15.2 38C6.8058 38 0 31.1942 0 22.8C0 14.4058 6.8058 7.6 15.2 7.6C16.2488 7.6 17.2748 7.7064 18.2666 7.9078L15.5306 10.6438C15.4204 10.64 15.3102 10.64 15.2 10.64C8.4968 10.64 3.04 16.0968 3.04 22.8C3.04 29.5032 8.4968 34.96 15.2 34.96C21.9032 34.96 27.36 29.5032 27.36 22.8C27.36 22.6898 27.36 22.5796 27.3562 22.4694L30.0922 19.7372C30.2936 20.7252 30.4 21.7512 30.4 22.8ZM30.476 0L12.882 17.594L20.406 25.118L38 7.524L30.476 0ZM10.7312 19.7448L9.12 28.88L18.2552 27.2688L10.7312 19.7448Z" fill="#01BEDB"/>
        </g>
        <defs>
            <clipPath id="clip0_25_209__Icon_editar1">
                <rect width="38" height="38" fill="white"/>
            </clipPath>
        </defs>
    </symbol>
    <symbol id="Icon_eliminar"  viewBox="0 0 35 35" fill="none" xmlns="http://www.w3.org/2000/svg">
        <path d="M25.886 15.4V19.6H9.086V15.4H25.886ZM17.5 4.2C10.1675 4.2 4.2 10.1675 4.2 17.5C4.2 24.8325 10.1675 30.8 17.5 30.8C24.8325 30.8 30.8 24.8325 30.8 17.5C30.8 10.1675 24.8325 4.2 17.5 4.2ZM17.5 0C27.1635 0 35 7.8365 35 17.5C35 27.1635 27.1635 35 17.5 35C7.8365 35 0 27.1635 0 17.5C0 7.8365 7.8365 0 17.5 0Z" fill="#C5C5C5"/>
    </symbol>
    <symbol id="Icon_eliminar1"  viewBox="0 0 35 35" fill="none" xmlns="http://www.w3.org/2000/svg">
        <path d="M25.886 15.4V19.6H9.086V15.4H25.886ZM17.5 4.2C10.1675 4.2 4.2 10.1675 4.2 17.5C4.2 24.8325 10.1675 30.8 17.5 30.8C24.8325 30.8 30.8 24.8325 30.8 17.5C30.8 10.1675 24.8325 4.2 17.5 4.2ZM17.5 0C27.1635 0 35 7.8365 35 17.5C35 27.1635 27.1635 35 17.5 35C7.8365 35 0 27.1635 0 17.5C0 7.8365 7.8365 0 17.5 0Z" fill="#C6007E"/>
    </symbol>
    <symbol id="Icon_persona"  viewBox="0 0 47 49" fill="none" xmlns="http://www.w3.org/2000/svg">
        <path d="M23.5 5.88C26.627 5.88 29.1855 8.526 29.1855 11.76C29.1855 14.994 26.627 17.64 23.5 17.64C20.373 17.64 17.8145 14.994 17.8145 11.76C17.8145 8.526 20.373 5.88 23.5 5.88ZM23.5 0C17.1986 0 12.129 5.243 12.129 11.76C12.129 18.277 17.1986 23.52 23.5 23.52C29.8014 23.52 34.871 18.277 34.871 11.76C34.871 5.243 29.8014 0 23.5 0ZM23.5 27.44C11.371 27.44 1.42137 36.848 0 49H5.73286C7.10685 40.131 14.5454 33.32 23.5 33.32C32.4546 33.32 39.8931 40.131 41.2671 49H47C45.626 36.848 35.629 27.44 23.5 27.44Z" fill="#C5C5C5"/>
    </symbol>
    <symbol id="Icon_persona1"  viewBox="0 0 47 49" fill="none" xmlns="http://www.w3.org/2000/svg">
        <path d="M23.5 5.88C26.627 5.88 29.1855 8.526 29.1855 11.76C29.1855 14.994 26.627 17.64 23.5 17.64C20.373 17.64 17.8145 14.994 17.8145 11.76C17.8145 8.526 20.373 5.88 23.5 5.88ZM23.5 0C17.1986 0 12.129 5.243 12.129 11.76C12.129 18.277 17.1986 23.52 23.5 23.52C29.8014 23.52 34.871 18.277 34.871 11.76C34.871 5.243 29.8014 0 23.5 0ZM23.5 27.44C11.371 27.44 1.42137 36.848 0 49H5.73286C7.10685 40.131 14.5454 33.32 23.5 33.32C32.4546 33.32 39.8931 40.131 41.2671 49H47C45.626 36.848 35.629 27.44 23.5 27.44Z" fill="url(#paint0_linear_2_12__Icon_persona1)"/>
        <defs>
            <linearGradient id="paint0_linear_2_12__Icon_persona1" x1="23.5" y1="0" x2="23.5" y2="49" gradientUnits="userSpaceOnUse">
                <stop stop-color="#C6007E"/>
                <stop offset="1" stop-color="#E280BE"/>
            </linearGradient>
        </defs>
    </symbol>
    <symbol id="Icon_puntoubicacion" viewBox="0 0 48 49" fill="none" xmlns="http://www.w3.org/2000/svg">
        <path d="M24 10.78C25.584 10.78 26.88 12.103 26.88 13.72C26.88 15.337 25.584 16.66 24 16.66C22.416 16.66 21.12 15.337 21.12 13.72C21.12 12.103 22.416 10.78 24 10.78ZM29.76 33.565V37.485C37.344 38.122 42.096 39.984 43.728 41.16C41.712 42.63 34.992 45.08 24 45.08C13.008 45.08 6.288 42.63 4.272 41.16C5.904 39.984 10.656 38.122 18.24 37.485V33.565C7.776 34.398 0 37.485 0 41.16C0 45.472 10.752 49 24 49C37.248 49 48 45.472 48 41.16C48 37.485 40.224 34.398 29.76 33.565ZM25.92 27.293V41.16H22.08V27.293C15.552 26.362 10.56 20.629 10.56 13.72C10.56 6.125 16.56 0 24 0C31.44 0 37.44 6.125 37.44 13.72C37.44 20.629 32.448 26.362 25.92 27.293ZM31.68 13.72C31.68 9.408 28.224 5.88 24 5.88C19.776 5.88 16.32 9.408 16.32 13.72C16.32 18.032 19.776 21.56 24 21.56C28.224 21.56 31.68 18.032 31.68 13.72Z" fill="#C5C5C5"/>
    </symbol>
    <symbol id="Icon_puntoubicacion1" viewBox="0 0 48 49" fill="none" xmlns="http://www.w3.org/2000/svg">
        <path d="M24 10.78C25.584 10.78 26.88 12.103 26.88 13.72C26.88 15.337 25.584 16.66 24 16.66C22.416 16.66 21.12 15.337 21.12 13.72C21.12 12.103 22.416 10.78 24 10.78ZM29.76 33.565V37.485C37.344 38.122 42.096 39.984 43.728 41.16C41.712 42.63 34.992 45.08 24 45.08C13.008 45.08 6.288 42.63 4.272 41.16C5.904 39.984 10.656 38.122 18.24 37.485V33.565C7.776 34.398 0 37.485 0 41.16C0 45.472 10.752 49 24 49C37.248 49 48 45.472 48 41.16C48 37.485 40.224 34.398 29.76 33.565ZM25.92 27.293V41.16H22.08V27.293C15.552 26.362 10.56 20.629 10.56 13.72C10.56 6.125 16.56 0 24 0C31.44 0 37.44 6.125 37.44 13.72C37.44 20.629 32.448 26.362 25.92 27.293ZM31.68 13.72C31.68 9.408 28.224 5.88 24 5.88C19.776 5.88 16.32 9.408 16.32 13.72C16.32 18.032 19.776 21.56 24 21.56C28.224 21.56 31.68 18.032 31.68 13.72Z" fill="url(#paint0_linear_2_11__Icon_puntoubicacion1)"/>
        <defs>
            <linearGradient id="paint0_linear_2_11__Icon_puntoubicacion1" x1="24" y1="0" x2="24" y2="49" gradientUnits="userSpaceOnUse">
                <stop stop-color="#C6007E"/>
                <stop offset="1" stop-color="#E280BE"/>
            </linearGradient>
        </defs>
    </symbol>
    <symbol id="Icon_vehiculo" viewBox="0 0 47 49" fill="none" xmlns="http://www.w3.org/2000/svg">
        <path d="M47 0V15.68H41.36V5.88H5.64V15.68H0V0H47ZM2.82 41.16V49H10.34V41.16H2.82ZM36.66 41.16V49H44.18V41.16H36.66ZM47 19.6V37.24H0V19.6H47ZM13.16 28.42C13.16 25.7152 11.0544 23.52 8.46 23.52C5.8656 23.52 3.76 25.7152 3.76 28.42C3.76 31.1248 5.8656 33.32 8.46 33.32C11.0544 33.32 13.16 31.1248 13.16 28.42ZM43.24 28.42C43.24 25.7152 41.1344 23.52 38.54 23.52C35.9456 23.52 33.84 25.7152 33.84 28.42C33.84 31.1248 35.9456 33.32 38.54 33.32C41.1344 33.32 43.24 31.1248 43.24 28.42Z" fill="#C5C5C5"/>
    </symbol>
    <symbol id="Icon_vehiculo1" viewBox="0 0 47 49" fill="none" xmlns="http://www.w3.org/2000/svg">
        <path d="M47 0V15.68H41.36V5.88H5.64V15.68H0V0H47ZM2.82 41.16V49H10.34V41.16H2.82ZM36.66 41.16V49H44.18V41.16H36.66ZM47 19.6V37.24H0V19.6H47ZM13.16 28.42C13.16 25.7152 11.0544 23.52 8.46 23.52C5.8656 23.52 3.76 25.7152 3.76 28.42C3.76 31.1248 5.8656 33.32 8.46 33.32C11.0544 33.32 13.16 31.1248 13.16 28.42ZM43.24 28.42C43.24 25.7152 41.1344 23.52 38.54 23.52C35.9456 23.52 33.84 25.7152 33.84 28.42C33.84 31.1248 35.9456 33.32 38.54 33.32C41.1344 33.32 43.24 31.1248 43.24 28.42Z" fill="url(#paint0_linear_2_10__Icon_vehiculo1)"/>
        <defs>
            <linearGradient id="paint0_linear_2_10__Icon_vehiculo1" x1="23.5" y1="0" x2="23.5" y2="49" gradientUnits="userSpaceOnUse">
                <stop stop-color="#C6007E"/>
                <stop offset="1" stop-color="#E280BE"/>
            </linearGradient>
        </defs>
    </symbol>
    <symbol id="Imagologotipo_motion" width="290" height="64" viewBox="0 0 290 64" fill="none" xmlns="http://www.w3.org/2000/svg">
        <g clip-path="url(#clip0_28_463__Imagologotipo_motion)">
            <path d="M112.703 57.5756C105.448 58.842 97.7102 56.6898 92.109 51.107C86.5039 45.5242 84.3431 37.8173 85.6146 30.5953C89.0469 35.2924 93.288 40.2339 98.1568 45.0833C103.022 49.9327 107.987 54.1569 112.703 57.5756ZM131.212 40.7349C133.325 32.9478 131.313 24.283 125.177 18.1712C119.04 12.0594 110.341 10.0515 102.523 12.1596C100.559 12.6886 98.6558 13.4741 96.8611 14.5201C97.509 16.9488 99.537 20.4396 102.559 24.3632C107.15 21.658 113.166 22.2752 117.117 26.2068C121.064 30.1384 121.68 36.13 118.968 40.7069C122.907 43.7167 126.412 45.7366 128.85 46.3819C129.893 44.5864 130.681 42.6907 131.212 40.7349ZM28.5167 25.5615C27.8488 25.5615 27.1929 25.6056 26.5491 25.6978C24.167 29.8458 22.811 34.6431 22.811 39.761V56.802H34.2185V39.761C34.2185 35.7412 35.6188 32.0421 37.9606 29.1284C35.4498 26.9041 32.1422 25.5615 28.5167 25.5615ZM186.206 0V11.2097C182.472 12.1676 178.536 12.1676 174.802 11.2097V0H186.206ZM166.248 17.041V28.399C150.499 28.399 137.731 15.6864 137.731 0H149.138C149.138 9.41023 156.796 17.041 166.248 17.041ZM186.206 17.033V56.802H174.802V17.033C178.561 17.7985 182.448 17.7985 186.206 17.033ZM79.8445 39.761V56.802H68.437V39.761C68.437 30.3508 60.7837 22.724 51.3317 22.72C54.9129 27.4652 57.0335 33.3686 57.0335 39.761V56.802H45.626V39.761C45.626 34.7153 43.425 30.1825 39.9242 27.0604C36.8983 24.3632 32.8987 22.72 28.5167 22.72H28.5127C19.0648 22.724 11.4075 30.3508 11.4075 39.761V56.802H0V39.761C0 24.0746 12.7675 11.358 28.5167 11.358C32.5727 11.358 36.4316 12.1996 39.9242 13.7226C43.4169 12.1996 47.2717 11.358 51.3277 11.358C67.0769 11.358 79.8445 24.0746 79.8445 39.761ZM290 34.082V56.802H278.597V34.082C278.597 27.8059 273.49 22.72 267.189 22.72C260.892 22.72 255.786 27.8059 255.786 34.082V56.802H244.378V34.082C244.378 21.5337 254.59 11.358 267.189 11.358C279.788 11.358 290 21.5337 290 34.082ZM238.676 34.6511C238.676 47.5121 228.206 57.9403 215.29 57.9403C202.373 57.9403 191.908 47.5161 191.908 34.6511C191.908 21.7862 202.373 11.358 215.29 11.358C228.206 11.358 238.676 21.7862 238.676 34.6511ZM227.269 34.6511C227.269 28.0624 221.905 22.72 215.29 22.72C208.679 22.72 203.315 28.0624 203.315 34.6511C203.315 41.2359 208.679 46.5782 215.29 46.5782C221.905 46.5742 227.269 41.2359 227.269 34.6511ZM166.244 45.0553V57.2148C160.57 58.6737 154.406 57.9403 149.134 54.8944C148.004 54.2451 146.913 53.4876 145.879 52.622C140.499 48.1252 137.727 41.6888 137.727 35.2042V13.0292C139.047 15.8908 140.789 18.5239 142.877 20.8404C144.716 22.8843 146.817 24.6838 149.134 26.1867V35.2082C149.134 38.4505 150.519 41.6727 153.211 43.9211C156.985 47.0752 162.212 47.3758 166.244 45.0553Z" fill="url(#paint0_linear_28_463__Imagologotipo_motion)"/>
            <path d="M136.87 62.7575C132.194 67.4145 115.761 58.6055 100.173 43.0754C84.5847 27.5453 75.7364 11.1816 80.412 6.52456C83.1804 3.76721 90.0611 5.72701 98.4468 11.0052C96.2296 10.1716 94.5638 10.1035 93.7188 10.9451C91.047 13.6063 97.5454 24.3952 108.237 35.0438C118.928 45.6924 129.76 52.165 132.432 49.5038C133.277 48.6622 133.204 47.003 132.371 44.7947C137.671 53.1429 139.634 60.0002 136.87 62.7575ZM221.567 34.647C221.567 31.1964 218.759 28.3989 215.294 28.3989C211.83 28.3989 209.021 31.1964 209.021 34.647C209.021 38.0977 211.83 40.8951 215.294 40.8951C218.759 40.8951 221.567 38.0977 221.567 34.647Z" fill="url(#paint1_linear_28_463__Imagologotipo_motion)"/>
        </g>
        <defs>
            <linearGradient id="paint0_linear_28_463__Imagologotipo_motion" x1="145" y1="57.9396" x2="145" y2="0" gradientUnits="userSpaceOnUse">
                <stop stop-color="#0047BB"/>
                <stop offset="0.8" stop-color="#01BEDB"/>
            </linearGradient>
            <linearGradient id="paint1_linear_28_463__Imagologotipo_motion" x1="191.051" y1="67.6287" x2="105.399" y2="-18.3663" gradientUnits="userSpaceOnUse">
                <stop offset="0.3" stop-color="#CC007E"/>
                <stop offset="1" stop-color="#D9409E"/>
            </linearGradient>
            <clipPath id="clip0_28_463__Imagologotipo_motion">
                <rect width="290" height="64" fill="white"/>
            </clipPath>
        </defs>
    </symbol>
    <symbol id="Imagologo_motion" viewBox="0 0 56 55" fill="none" xmlns="http://www.w3.org/2000/svg">
        <path d="M31.8585 48.9803C24.9675 50.1665 17.6179 48.1508 12.2977 42.922C6.97369 37.6933 4.9213 30.4752 6.12904 23.7112C9.38918 28.1104 13.4175 32.7386 18.0421 37.2804C22.6629 41.8222 27.3792 45.7785 31.8585 48.9803ZM49.4396 33.2078C51.4461 25.9146 49.5351 17.7993 43.7066 12.0751C37.8781 6.35089 29.615 4.47035 22.1889 6.44473C20.3238 6.9402 18.516 7.67591 16.8114 8.65559C17.4268 10.9303 19.353 14.1996 22.2233 17.8744C26.5842 15.3407 32.298 15.9188 36.0512 19.601C39.8006 23.2833 40.3853 28.8949 37.8093 33.1815C41.551 36.0004 44.88 37.8922 47.1961 38.4966C48.186 36.815 48.9351 35.0395 49.4396 33.2078Z" fill="url(#paint0_linear_12_154__Imagologo_motion)"/>
        <path d="M54.8132 53.8337C50.3721 58.1954 34.7632 49.945 19.9569 35.3999C5.15061 20.8547 -3.25389 5.52886 1.18723 1.1672C3.81675 -1.41527 10.3523 0.420232 18.3173 5.3637C16.2114 4.58296 14.6291 4.51914 13.8265 5.3074C11.2887 7.79978 17.4612 17.9044 27.6161 27.8777C37.7711 37.851 48.0598 43.913 50.5976 41.4206C51.4002 40.6324 51.3314 39.0784 50.5403 37.0102C55.5738 44.8289 57.4389 51.2512 54.8132 53.8337Z" fill="url(#paint1_linear_12_154__Imagologo_motion)"/>
        <defs>
            <linearGradient id="paint0_linear_12_154__Imagologo_motion" x1="71.539" y1="55.0144" x2="71.539" y2="-13.4018" gradientUnits="userSpaceOnUse">
                <stop stop-color="#0047BB"/>
                <stop offset="0.8" stop-color="#01BEDB"/>
            </linearGradient>
            <linearGradient id="paint1_linear_12_154__Imagologo_motion" x1="106.276" y1="58.396" x2="26.0688" y2="-23.2726" gradientUnits="userSpaceOnUse">
                <stop offset="0.3" stop-color="#CC007E"/>
                <stop offset="1" stop-color="#D9409E"/>
            </linearGradient>
        </defs>
    </symbol>
</svg>